<svg width="48pt" height="37pt" viewBox="-1.2 -1.2 50 40" xmlns="http://www.w3.org/2000/svg"><g id="fontsvg1678435421973" stroke-linecap="round" fill-rule="evenodd" stroke="#000000" stroke-width="0.6mm" fill="#000000"><path d="M 30.165 21.897 A 0.43 0.43 0 0 0 30.117 21.768 Q 29.961 21.465 29.828 21.053 A 8.218 8.218 0 0 1 29.678 20.522 A 15.099 15.099 0 0 1 29.5 19.713 A 20.481 20.481 0 0 1 29.348 18.809 Q 29.209 17.856 29.114 16.75 A 42.881 42.881 0 0 1 29.069 16.192 A 48.347 48.347 0 0 1 28.975 14.443 A 225.015 225.015 0 0 1 29.529 14.374 Q 29.794 14.341 30.037 14.311 A 126.673 126.673 0 0 1 30.586 14.246 Q 31.016 14.195 31.378 14.153 A 343.29 343.29 0 0 1 31.787 14.106 Q 32.108 14.07 32.365 14.039 A 58.841 58.841 0 0 0 32.651 14.004 A 61.261 61.261 0 0 1 32.863 13.978 Q 33.085 13.951 33.267 13.931 A 0.716 0.716 0 0 0 33.29 13.927 A 0.564 0.564 0 0 0 33.626 13.748 Q 33.765 13.594 33.765 13.389 A 0.646 0.646 0 0 0 33.763 13.347 A 0.495 0.495 0 0 0 33.582 12.986 Q 33.398 12.832 33.208 12.832 A 0.331 0.331 0 0 0 33.188 12.833 Q 33.054 12.842 32.139 12.942 Q 31.128 13.052 28.931 13.33 A 24.352 24.352 0 0 1 28.901 12.144 L 28.901 10.957 A 76.176 76.176 0 0 1 28.967 7.771 Q 29.033 6.196 29.128 4.885 A 102.2 102.2 0 0 1 29.188 4.105 Q 29.218 3.735 29.247 3.404 A 50.267 50.267 0 0 1 29.319 2.666 Q 29.414 1.758 29.458 1.479 A 2.711 2.711 0 0 0 29.51 1.414 Q 29.568 1.338 29.629 1.249 A 5.003 5.003 0 0 0 29.736 1.084 A 1.303 1.303 0 0 0 29.774 1.02 Q 29.822 0.933 29.848 0.85 A 0.666 0.666 0 0 0 29.883 0.645 A 0.732 0.732 0 0 0 29.882 0.61 A 0.589 0.589 0 0 0 29.678 0.183 Q 29.473 0 29.253 0 A 0.852 0.852 0 0 0 29.151 0.006 Q 28.984 0.026 28.863 0.115 A 0.625 0.625 0 0 0 28.682 0.33 Q 28.506 0.659 28.418 1.055 A 136.373 136.373 0 0 1 28.388 1.103 Q 28.178 1.451 27.888 1.924 A 409.842 409.842 0 0 1 27.671 2.278 A 114.251 114.251 0 0 1 27.188 3.058 A 155.537 155.537 0 0 1 26.646 3.918 A 475.488 475.488 0 0 1 26.054 4.849 A 573.426 573.426 0 0 1 25.422 5.837 Q 24.771 6.855 24.089 7.896 A 135.981 135.981 0 0 1 22.72 9.946 A 157.236 157.236 0 0 1 22.046 10.928 A 132.912 132.912 0 0 1 21.401 11.851 A 20.214 20.214 0 0 1 21.246 12.068 Q 20.915 12.527 20.479 13.081 A 24.478 24.478 0 0 1 19.896 13.792 A 31.985 31.985 0 0 1 19.233 14.546 A 70.781 70.781 0 0 1 18.332 14.63 A 60.194 60.194 0 0 1 16.45 14.766 Q 15.132 14.839 13.945 14.839 Q 11.88 14.839 10.269 14.619 A 17.527 17.527 0 0 1 9.703 14.533 Q 9.099 14.43 8.574 14.294 A 9.097 9.097 0 0 1 7.551 13.967 Q 6.445 13.535 5.867 12.898 A 2.124 2.124 0 0 1 5.288 11.426 A 2.016 2.016 0 0 1 5.493 10.525 A 4.21 4.21 0 0 1 5.681 10.182 A 3.225 3.225 0 0 1 5.947 9.807 A 4.84 4.84 0 0 1 6.057 9.68 Q 6.147 9.578 6.233 9.494 A 2.485 2.485 0 0 1 6.416 9.331 A 28.381 28.381 0 0 0 6.477 9.282 Q 6.604 9.18 6.647 9.142 A 0.392 0.392 0 0 0 6.665 9.126 A 0.459 0.459 0 0 0 6.841 8.928 A 0.596 0.596 0 0 0 6.899 8.672 A 0.667 0.667 0 0 0 6.898 8.626 A 0.478 0.478 0 0 0 6.724 8.276 A 0.738 0.738 0 0 0 6.662 8.23 A 0.563 0.563 0 0 0 6.343 8.13 A 0.508 0.508 0 0 0 6.265 8.136 Q 6.101 8.162 5.9 8.292 A 2.126 2.126 0 0 0 5.713 8.43 A 2.854 2.854 0 0 0 5.707 8.435 Q 5.515 8.593 5.332 8.799 A 4.657 4.657 0 0 0 5.01 9.207 Q 4.673 9.683 4.431 10.269 A 3.496 3.496 0 0 0 4.371 10.424 A 3 3 0 0 0 4.189 11.44 A 3.935 3.935 0 0 0 4.2 11.737 A 2.985 2.985 0 0 0 4.988 13.594 A 4.908 4.908 0 0 0 6.06 14.457 A 6.783 6.783 0 0 0 7.134 14.978 A 9.678 9.678 0 0 0 7.179 14.995 Q 7.876 15.26 8.686 15.446 A 15.648 15.648 0 0 0 10.254 15.718 A 27.37 27.37 0 0 0 11.181 15.816 A 31.511 31.511 0 0 0 13.989 15.938 A 47.214 47.214 0 0 0 16.011 15.894 A 49.901 49.901 0 0 0 18.076 15.762 A 24.348 24.348 0 0 1 17.393 16.418 A 28.4 28.4 0 0 1 15.725 17.842 A 18.492 18.492 0 0 1 12.927 19.666 A 17.083 17.083 0 0 1 9.741 20.962 A 12.387 12.387 0 0 1 6.211 21.46 A 13.77 13.77 0 0 1 5.839 21.455 Q 4.725 21.425 3.882 21.211 A 12.888 12.888 0 0 1 3.423 21.086 Q 2.745 20.887 2.263 20.654 A 9.085 9.085 0 0 1 2.149 20.598 Q 1.597 20.322 1.304 20.076 A 92.747 92.747 0 0 1 1.268 20.046 Q 0.98 19.803 0.952 19.775 Q 0.791 19.6 0.542 19.6 A 0.522 0.522 0 0 0 0.343 19.637 A 0.551 0.551 0 0 0 0.161 19.761 A 0.546 0.546 0 0 0 0.048 19.923 A 0.562 0.562 0 0 0 0 20.156 Q 0 20.391 0.147 20.537 A 0.208 0.208 0 0 0 0.151 20.541 Q 0.197 20.585 0.549 20.889 Q 0.806 21.11 1.236 21.356 A 9.379 9.379 0 0 0 1.663 21.584 A 6.447 6.447 0 0 0 2.031 21.756 Q 2.668 22.028 3.538 22.258 A 7.38 7.38 0 0 0 3.875 22.339 Q 4.897 22.559 6.226 22.559 Q 9.712 22.559 13.176 20.793 A 20.728 20.728 0 0 0 16.558 18.616 A 27.103 27.103 0 0 0 19.775 15.615 Q 21.05 15.483 22.28 15.308 A 884.902 884.902 0 0 1 22.767 15.243 Q 24.231 15.049 25.408 14.897 Q 26.777 14.722 27.876 14.575 A 74.182 74.182 0 0 0 27.891 14.882 A 67.316 67.316 0 0 0 28.03 16.956 A 34.815 34.815 0 0 0 28.109 17.796 A 28.453 28.453 0 0 0 28.279 19.102 A 20.772 20.772 0 0 0 28.447 20.052 A 15.813 15.813 0 0 0 28.645 20.911 A 9.67 9.67 0 0 0 28.743 21.259 Q 28.919 21.844 29.136 22.266 A 0.622 0.622 0 0 0 29.176 22.334 A 0.487 0.487 0 0 0 29.334 22.485 A 0.513 0.513 0 0 0 29.458 22.538 A 0.605 0.605 0 0 0 29.619 22.559 A 0.706 0.706 0 0 0 29.695 22.555 A 0.513 0.513 0 0 0 30.022 22.397 A 0.533 0.533 0 0 0 30.176 22.017 A 0.738 0.738 0 0 0 30.176 22.013 Q 30.175 21.951 30.165 21.897 Z M 39.58 21.504 L 39.639 21.504 A 3.327 3.327 0 0 0 40.79 21.308 A 3.107 3.107 0 0 0 41.213 21.116 A 5.121 5.121 0 0 0 42.495 20.12 A 8.158 8.158 0 0 0 43.521 18.765 A 21.173 21.173 0 0 0 44.096 17.758 A 18.042 18.042 0 0 0 44.326 17.314 A 0.59 0.59 0 0 1 44.439 17.146 A 0.538 0.538 0 0 1 44.539 17.065 A 0.552 0.552 0 0 1 44.839 16.978 A 0.568 0.568 0 0 1 45.021 17.005 A 0.468 0.468 0 0 1 45.234 17.153 A 0.661 0.661 0 0 1 45.338 17.322 A 0.547 0.547 0 0 1 45.381 17.534 A 0.552 0.552 0 0 1 45.337 17.754 A 14.532 14.532 0 0 1 44.621 19.139 A 16.364 16.364 0 0 1 44.429 19.46 A 8.078 8.078 0 0 1 43.198 21.006 A 6.086 6.086 0 0 1 41.616 22.126 A 4.256 4.256 0 0 1 39.998 22.548 A 5.083 5.083 0 0 1 39.668 22.559 Q 38.892 22.559 38.159 22.317 A 3.497 3.497 0 0 1 36.87 21.563 A 2.257 2.257 0 0 1 36.621 21.336 A 1.931 1.931 0 0 1 36.519 21.218 A 2.946 2.946 0 0 1 36.402 21.062 Q 36.346 20.983 36.303 20.908 A 1.714 1.714 0 0 1 36.284 20.874 A 0.132 0.132 0 0 1 36.269 20.856 Q 36.255 20.836 36.255 20.815 Q 36.167 20.684 36.167 20.537 A 0.532 0.532 0 0 1 36.268 20.226 A 0.682 0.682 0 0 1 36.299 20.186 A 0.173 0.173 0 0 1 36.306 20.172 Q 36.317 20.154 36.328 20.149 A 0.096 0.096 0 0 0 36.343 20.14 Q 36.349 20.135 36.356 20.129 A 0.161 0.161 0 0 0 36.357 20.127 A 0.607 0.607 0 0 1 36.506 20.027 A 0.506 0.506 0 0 1 36.68 19.98 L 36.724 19.98 A 0.579 0.579 0 0 1 36.758 19.981 Q 36.79 19.983 36.81 19.989 A 0.092 0.092 0 0 1 36.826 19.995 Q 36.836 19.995 36.843 19.998 A 0.022 0.022 0 0 1 36.848 20.002 A 0.023 0.023 0 0 0 36.857 20.008 Q 36.861 20.009 36.865 20.01 A 0.052 0.052 0 0 0 36.87 20.01 Q 36.914 20.01 36.973 20.039 Q 36.982 20.049 36.992 20.052 A 0.031 0.031 0 0 0 37.002 20.054 Q 37.134 20.142 37.222 20.273 Q 37.324 20.449 37.456 20.596 A 1.315 1.315 0 0 0 37.638 20.746 A 1.59 1.59 0 0 0 37.734 20.808 A 0.689 0.689 0 0 0 38.038 20.901 A 0.842 0.842 0 0 0 38.101 20.903 A 1.311 1.311 0 0 0 38.601 20.801 A 1.718 1.718 0 0 0 38.833 20.684 A 2.026 2.026 0 0 0 39.26 20.337 A 2.641 2.641 0 0 0 39.492 20.054 Q 39.785 19.644 39.968 19.058 A 3.977 3.977 0 0 0 40.123 18.295 A 5.066 5.066 0 0 0 40.151 17.754 Q 40.151 17.227 40.042 16.853 Q 39.932 16.479 39.763 16.245 A 1.532 1.532 0 0 0 39.624 16.077 Q 39.545 15.994 39.461 15.936 A 0.852 0.852 0 0 0 39.404 15.901 A 0.918 0.918 0 0 0 39.252 15.83 Q 39.153 15.795 39.058 15.791 A 0.567 0.567 0 0 0 39.038 15.791 Q 38.643 15.791 38.24 16.201 Q 37.837 16.611 37.441 17.241 A 16.563 16.563 0 0 0 36.953 18.075 A 20.396 20.396 0 0 0 36.658 18.633 Q 36.27 19.395 35.874 20.112 A 425.377 425.377 0 0 1 35.839 22.43 A 367.826 367.826 0 0 1 35.793 24.639 Q 35.742 26.792 35.618 28.638 A 49.991 49.991 0 0 1 35.469 30.396 A 36.887 36.887 0 0 1 35.273 31.978 A 17.37 17.37 0 0 1 35.068 33.12 Q 34.947 33.683 34.796 34.167 A 9.249 9.249 0 0 1 34.673 34.534 Q 34.387 35.33 34.003 35.85 A 3.045 3.045 0 0 1 33.735 36.167 A 1.825 1.825 0 0 1 32.411 36.738 A 2.247 2.247 0 0 1 32.373 36.738 Q 32.124 36.738 31.802 36.636 Q 31.48 36.533 31.201 36.218 Q 30.923 35.903 30.732 35.317 A 3.255 3.255 0 0 1 30.624 34.868 Q 30.583 34.631 30.563 34.351 A 8.247 8.247 0 0 1 30.542 33.75 A 12.348 12.348 0 0 1 30.6 32.596 Q 30.656 31.997 30.768 31.328 A 22.915 22.915 0 0 1 30.85 30.864 A 29.539 29.539 0 0 1 31.327 28.764 A 36.51 36.51 0 0 1 31.721 27.385 Q 32.285 25.547 33.062 23.613 Q 33.838 21.68 34.775 19.849 Q 34.775 19.336 34.783 18.838 A 66.549 66.549 0 0 0 34.79 17.989 A 60.727 60.727 0 0 0 34.79 17.871 A 0.684 0.684 0 0 1 34.627 18.011 A 0.553 0.553 0 0 1 34.336 18.091 A 0.568 0.568 0 0 1 34.154 18.063 A 0.468 0.468 0 0 1 33.94 17.915 A 0.661 0.661 0 0 1 33.837 17.747 A 0.547 0.547 0 0 1 33.794 17.534 A 0.548 0.548 0 0 1 33.807 17.418 A 0.745 0.745 0 0 1 33.838 17.314 Q 34.189 16.509 34.38 15.784 A 20.399 20.399 0 0 0 34.509 15.265 Q 34.57 15.007 34.616 14.776 A 10.954 10.954 0 0 0 34.666 14.509 Q 34.754 14 34.773 13.686 A 3.202 3.202 0 0 0 34.775 13.638 A 261.683 261.683 0 0 0 34.779 13.562 Q 34.79 13.314 34.79 13.301 A 0.52 0.52 0 0 1 34.946 12.925 A 0.664 0.664 0 0 1 34.951 12.92 Q 35.112 12.759 35.347 12.759 A 0.533 0.533 0 0 1 35.728 12.913 Q 35.889 13.066 35.889 13.301 L 35.889 17.798 A 114.891 114.891 0 0 1 36.563 16.67 A 8.194 8.194 0 0 1 36.998 16.02 A 6.84 6.84 0 0 1 37.273 15.674 A 3.783 3.783 0 0 1 37.75 15.201 A 3.156 3.156 0 0 1 38.079 14.963 A 1.769 1.769 0 0 1 39.038 14.692 Q 39.536 14.692 39.946 14.927 A 2.187 2.187 0 0 1 40.61 15.518 A 2.535 2.535 0 0 1 40.649 15.571 A 2.798 2.798 0 0 1 40.968 16.16 A 3.54 3.54 0 0 1 41.096 16.545 A 4.41 4.41 0 0 1 41.24 17.437 A 5.16 5.16 0 0 1 41.25 17.754 Q 41.25 19.102 40.767 20.054 A 4.754 4.754 0 0 1 40.311 20.788 Q 39.991 21.206 39.605 21.486 A 2.992 2.992 0 0 1 39.58 21.504 Z M 23.784 13.987 A 622.639 622.639 0 0 0 22.134 14.209 A 80.297 80.297 0 0 0 22.05 14.22 A 72.752 72.752 0 0 0 21.482 14.297 Q 21.167 14.341 20.845 14.37 A 76.216 76.216 0 0 0 21.577 13.447 Q 21.943 12.979 22.295 12.48 A 133.066 133.066 0 0 0 23.016 11.448 A 160.451 160.451 0 0 0 23.774 10.342 A 157.707 157.707 0 0 0 25.313 8.035 A 191.402 191.402 0 0 0 26.785 5.75 Q 27.495 4.629 28.081 3.706 Q 27.949 5.098 27.876 6.98 A 91.583 91.583 0 0 0 27.844 7.933 A 105.258 105.258 0 0 0 27.803 10.928 Q 27.803 11.572 27.81 12.202 A 108.388 108.388 0 0 0 27.832 13.462 Q 26.689 13.608 25.276 13.792 A 460.216 460.216 0 0 0 23.784 13.987 Z M 34.746 22.456 A 45.178 45.178 0 0 0 33.45 25.693 A 42.387 42.387 0 0 0 32.709 27.97 A 36.463 36.463 0 0 0 32.468 28.828 A 33.615 33.615 0 0 0 32.073 30.465 A 26.599 26.599 0 0 0 31.846 31.655 A 18.49 18.49 0 0 0 31.703 32.673 Q 31.648 33.18 31.632 33.628 A 9.786 9.786 0 0 0 31.626 33.97 A 4.901 4.901 0 0 0 31.635 34.264 A 6.297 6.297 0 0 0 31.655 34.512 A 2.452 2.452 0 0 0 31.719 34.877 A 2.09 2.09 0 0 0 31.773 35.054 Q 31.86 35.303 32.022 35.471 A 0.538 0.538 0 0 0 32.357 35.634 A 0.748 0.748 0 0 0 32.446 35.64 A 0.765 0.765 0 0 0 32.942 35.453 Q 33.056 35.359 33.16 35.218 A 1.999 1.999 0 0 0 33.281 35.032 Q 33.633 34.424 33.875 33.391 Q 34.1 32.427 34.256 31.195 A 30.56 30.56 0 0 0 34.277 31.018 A 49.935 49.935 0 0 0 34.482 28.938 A 56.584 56.584 0 0 0 34.534 28.213 A 83.566 83.566 0 0 0 34.673 25.261 A 419.826 419.826 0 0 0 34.713 23.817 A 350.542 350.542 0 0 0 34.746 22.456 Z M 47.2 21.723 A 0.822 0.822 0 0 0 47.256 21.416 A 0.906 0.906 0 0 0 47.256 21.406 A 0.747 0.747 0 0 0 47.029 20.867 A 0.758 0.758 0 0 0 46.772 20.696 A 0.822 0.822 0 0 0 46.465 20.64 Q 46.128 20.64 45.901 20.867 A 0.893 0.893 0 0 0 45.894 20.874 A 0.747 0.747 0 0 0 45.674 21.416 Q 45.674 21.753 45.901 21.98 A 0.758 0.758 0 0 0 46.158 22.151 A 0.822 0.822 0 0 0 46.465 22.207 Q 46.802 22.207 47.029 21.98 A 0.758 0.758 0 0 0 47.2 21.723 Z" vector-effect="non-scaling-stroke"/></g></svg>